<?xml version="1.0" encoding="UTF-8"?>
<svg id="Capa_1" xmlns="http://www.w3.org/2000/svg" version="1.1" viewBox="0 0 7.9 6.7">
  <!-- Generator: Adobe Illustrator 29.3.1, SVG Export Plug-In . SVG Version: 2.1.0 Build 151)  -->
  <path d="M3.8,5.6c-.1,0-.2,0-.4,0-.1,0-.3-.1-.2-.3,0-.1.1-.2.3-.2,1.9.2,3-1.3,3.3-1.8-.3-.4-1.4-1.9-3-1.9S1.2,2.8.9,3.2c.2.3.7,1.1,1.4,1.4.1,0,.2.2.1.4s-.2.2-.4.1c-.9-.5-1.6-1.7-1.7-1.7,0,0,0-.2,0-.3,0,0,1.4-2.3,3.5-2.3s3.5,2.2,3.5,2.3c0,0,0,.2,0,.3,0,0-1.2,2.2-3.5,2.2Z"/>
  <path d="M1.3,6c0,0-.1,0-.2,0-.1-.1-.1-.3,0-.4L6.2.4c.1-.1.3-.1.4,0,.1.1.1.3,0,.4L1.5,5.9c0,0-.1,0-.2,0Z"/>
  <path d="M3.1,4.2c0,0-.1,0-.2,0-.3-.3-.4-.6-.4-1,0-.8.6-1.4,1.4-1.4s.7.1.9.4c.1.1.1.3,0,.4-.1.1-.3.1-.4,0-.2-.1-.4-.2-.6-.2-.5,0-.8.4-.8.8s0,.4.2.6c.1.1.1.3,0,.4,0,0-.1,0-.2,0Z"/>
</svg>