<?xml version="1.0" encoding="UTF-8"?>
<svg id="Layer_1" xmlns="http://www.w3.org/2000/svg" xmlns:xlink="http://www.w3.org/1999/xlink" version="1.1" viewBox="0 0 122.9 110.8">
  <!-- Generator: Adobe Illustrator 29.3.1, SVG Export Plug-In . SVG Version: 2.1.0 Build 151)  -->
  <defs>
    <style>
      .st0 {
        mask: url(#mask);
      }

      .st1 {
        filter: url(#luminosity-noclip);
      }

      .st2 {
        fill: #6c6c6c;
      }

      .st3 {
        fill: url(#linear-gradient2);
      }

      .st4 {
        fill: url(#linear-gradient1);
      }

      .st5 {
        fill: url(#linear-gradient4);
      }

      .st6 {
        filter: url(#luminosity-noclip2);
      }

      .st7 {
        filter: url(#luminosity-noclip4);
      }

      .st8 {
        fill: url(#radial-gradient);
      }

      .st9 {
        mask: url(#mask-2);
      }

      .st10 {
        mask: url(#mask-3);
      }

      .st11 {
        mask: url(#mask-4);
      }

      .st12 {
        mask: url(#mask-5);
      }

      .st13 {
        mask: url(#mask-1);
      }

      .st14 {
        fill: #f80;
      }

      .st15 {
        fill: url(#radial-gradient1);
      }

      .st15, .st16, .st17 {
        mix-blend-mode: multiply;
      }

      .st16 {
        fill: url(#linear-gradient);
      }

      .st18 {
        fill: url(#radial-gradient3);
      }

      .st19 {
        fill: url(#radial-gradient2);
      }

      .st17 {
        fill: url(#linear-gradient3);
      }
    </style>
    <radialGradient id="radial-gradient" cx="67.8" cy="33.5" fx="67.8" fy="33.5" r="43.4" gradientUnits="userSpaceOnUse">
      <stop offset="0" stop-color="#ff5e00"/>
      <stop offset=".3" stop-color="#ff6200"/>
      <stop offset=".6" stop-color="#ff6e00"/>
      <stop offset=".9" stop-color="#ff8300"/>
      <stop offset="1" stop-color="#f80"/>
    </radialGradient>
    <filter id="luminosity-noclip" x="33.6" y="45.5" width="55.6" height="51.7" color-interpolation-filters="sRGB" filterUnits="userSpaceOnUse">
      <feFlood flood-color="#fff" result="bg"/>
      <feBlend in="SourceGraphic" in2="bg"/>
    </filter>
    <filter id="luminosity-noclip1" x="33.6" y="-8247" width="55.6" height="32766" color-interpolation-filters="sRGB" filterUnits="userSpaceOnUse">
      <feFlood flood-color="#fff" result="bg"/>
      <feBlend in="SourceGraphic" in2="bg"/>
    </filter>
    <mask id="mask-1" x="33.6" y="-8247" width="55.6" height="32766" maskUnits="userSpaceOnUse"/>
    <linearGradient id="linear-gradient" x1="40" y1="85" x2="69.4" y2="34" gradientUnits="userSpaceOnUse">
      <stop offset="0" stop-color="#fff"/>
      <stop offset=".1" stop-color="#cbcbcb"/>
      <stop offset=".2" stop-color="#959595"/>
      <stop offset=".4" stop-color="#686868"/>
      <stop offset=".5" stop-color="#424242"/>
      <stop offset=".6" stop-color="#252525"/>
      <stop offset=".8" stop-color="#101010"/>
      <stop offset=".9" stop-color="#040404"/>
      <stop offset="1" stop-color="#000"/>
    </linearGradient>
    <mask id="mask" x="33.6" y="45.5" width="55.6" height="51.7" maskUnits="userSpaceOnUse">
      <g class="st1">
        <g class="st13">
          <path class="st16" d="M86,53.3c-8.8,14.4-24.5,41.2-24.6,41.4-.1-.1-15.8-27-24.6-41.4-1.5-2.4-2.6-5-3.2-7.8.5,3.7,1.7,7.1,3.4,10.1,8.2,14.4,19.9,34.8,23.4,40.9.2.3.4.5.7.6,0,0,.2,0,.3,0h0c0,0,.2,0,.3,0,.3,0,.6-.3.7-.6,3.5-6.1,15.2-26.5,23.4-40.9,1.8-3.1,2.9-6.5,3.4-10.1-.7,2.8-1.8,5.4-3.2,7.8Z"/>
        </g>
      </g>
    </mask>
    <linearGradient id="linear-gradient1" x1="40" y1="85" x2="69.4" y2="34" gradientUnits="userSpaceOnUse">
      <stop offset="0" stop-color="#f60"/>
      <stop offset=".3" stop-color="#f70"/>
      <stop offset=".7" stop-color="#ff8300"/>
      <stop offset="1" stop-color="#f80"/>
    </linearGradient>
    <linearGradient id="linear-gradient2" x1="19.9" y1="-79.7" x2="19.9" y2="-33.2" gradientTransform="translate(115.4 15.9) rotate(-135)" gradientUnits="userSpaceOnUse">
      <stop offset="0" stop-color="#ff9d17"/>
      <stop offset=".2" stop-color="#ff830d"/>
      <stop offset=".5" stop-color="#ff6e06"/>
      <stop offset=".8" stop-color="#ff6201"/>
      <stop offset="1" stop-color="#ff5e00"/>
    </linearGradient>
    <filter id="luminosity-noclip2" x="42.1" y="14.6" width="46.4" height="46.4" color-interpolation-filters="sRGB" filterUnits="userSpaceOnUse">
      <feFlood flood-color="#fff" result="bg"/>
      <feBlend in="SourceGraphic" in2="bg"/>
    </filter>
    <filter id="luminosity-noclip3" x="42.1" y="-8247" width="46.4" height="32766" color-interpolation-filters="sRGB" filterUnits="userSpaceOnUse">
      <feFlood flood-color="#fff" result="bg"/>
      <feBlend in="SourceGraphic" in2="bg"/>
    </filter>
    <mask id="mask-3" x="42.1" y="-8247" width="46.4" height="32766" maskUnits="userSpaceOnUse"/>
    <radialGradient id="radial-gradient1" cx="86.2" cy="17.7" fx="86.2" fy="17.7" r="42.9" gradientUnits="userSpaceOnUse">
      <stop offset="0" stop-color="#bfbfbf"/>
      <stop offset="1" stop-color="#000"/>
    </radialGradient>
    <mask id="mask-2" x="42.1" y="14.6" width="46.4" height="46.4" maskUnits="userSpaceOnUse">
      <g class="st6">
        <g class="st10">
          <path class="st15" d="M88.6,41.4c0-14.8-12-26.8-26.8-26.8s-14.8,3.3-19.7,8.6c4.8-4.4,11.2-7.1,18.2-7.1,14.8,0,26.8,12,26.8,26.8s-2.7,13.4-7.1,18.2c5.3-4.9,8.6-11.9,8.6-19.7Z"/>
        </g>
      </g>
    </mask>
    <radialGradient id="radial-gradient2" cx="86.2" cy="17.7" fx="86.2" fy="17.7" r="42.9" gradientUnits="userSpaceOnUse">
      <stop offset="0" stop-color="#ffff91"/>
      <stop offset="1" stop-color="#ffff91"/>
    </radialGradient>
    <radialGradient id="radial-gradient3" cx="65.1" cy="36.2" fx="65.1" fy="36.2" r="27.6" gradientUnits="userSpaceOnUse">
      <stop offset="0" stop-color="#fff"/>
      <stop offset=".3" stop-color="#fcfcfc"/>
      <stop offset=".6" stop-color="#f4f4f4"/>
      <stop offset=".7" stop-color="#e5e5e5"/>
      <stop offset=".9" stop-color="#d1d1d1"/>
      <stop offset=".9" stop-color="#d0d0d0"/>
    </radialGradient>
    <filter id="luminosity-noclip4" x="46.1" y="20.6" width="36.5" height="36.5" color-interpolation-filters="sRGB" filterUnits="userSpaceOnUse">
      <feFlood flood-color="#fff" result="bg"/>
      <feBlend in="SourceGraphic" in2="bg"/>
    </filter>
    <filter id="luminosity-noclip5" x="46.1" y="-8247" width="36.5" height="32766" color-interpolation-filters="sRGB" filterUnits="userSpaceOnUse">
      <feFlood flood-color="#fff" result="bg"/>
      <feBlend in="SourceGraphic" in2="bg"/>
    </filter>
    <mask id="mask-5" x="46.1" y="-8247" width="36.5" height="32766" maskUnits="userSpaceOnUse"/>
    <linearGradient id="linear-gradient3" x1="61.1" y1="42.1" x2="76.4" y2="26.8" gradientUnits="userSpaceOnUse">
      <stop offset="0" stop-color="#000"/>
      <stop offset="1" stop-color="#fff"/>
    </linearGradient>
    <mask id="mask-4" x="46.1" y="20.6" width="36.5" height="36.5" maskUnits="userSpaceOnUse">
      <g class="st7">
        <g class="st12">
          <path class="st17" d="M61.4,20.6c-6,0-11.5,2.5-15.3,6.6,3.8-3.6,8.9-5.8,14.6-5.8,11.7,0,21.2,9.5,21.2,21.2s-2.2,10.8-5.8,14.6c4-3.9,6.6-9.3,6.6-15.3,0-11.7-9.5-21.2-21.2-21.2Z"/>
        </g>
      </g>
    </mask>
    <linearGradient id="linear-gradient4" x1="61.1" y1="42.1" x2="76.4" y2="26.8" gradientUnits="userSpaceOnUse">
      <stop offset="0" stop-color="#fff"/>
      <stop offset="1" stop-color="#d0d0d0"/>
    </linearGradient>
  </defs>
  <g>
    <path class="st8" d="M89.5,41.7c0-15.5-12.6-28.1-28.1-28.1s-28.1,12.6-28.1,28.1,1.3,9.8,3.7,13.9c8.2,14.4,19.9,34.8,23.4,40.9.2.4.6.6,1,.6s.8-.2,1-.6c3.5-6.1,15.2-26.5,23.4-40.9,2.3-4.1,3.7-8.8,3.7-13.9Z"/>
    <path class="st8" d="M89.5,41.7c0-15.5-12.6-28.1-28.1-28.1s-28.1,12.6-28.1,28.1,1.3,9.8,3.7,13.9c8.2,14.4,19.9,34.8,23.4,40.9.2.4.6.6,1,.6s.8-.2,1-.6c3.5-6.1,15.2-26.5,23.4-40.9,2.3-4.1,3.7-8.8,3.7-13.9Z"/>
    <g class="st0">
      <path class="st4" d="M86,53.3c-8.8,14.4-24.5,41.2-24.6,41.4-.1-.1-15.8-27-24.6-41.4-1.5-2.4-2.6-5-3.2-7.8.5,3.7,1.7,7.1,3.4,10.1,8.2,14.4,19.9,34.8,23.4,40.9.2.3.4.5.7.6,0,0,.2,0,.3,0h0c0,0,.2,0,.3,0,.3,0,.6-.3.7-.6,3.5-6.1,15.2-26.5,23.4-40.9,1.8-3.1,2.9-6.5,3.4-10.1-.7,2.8-1.8,5.4-3.2,7.8Z"/>
    </g>
    <path class="st3" d="M77.9,25.3c9.1,9.1,9.1,23.8,0,32.8-9.1,9.1-23.8,9.1-32.8,0-9.1-9.1-9.1-23.8,0-32.8,9.1-9.1,23.8-9.1,32.8,0Z"/>
    <path class="st14" d="M76.8,26.3c8.5,8.5,8.5,22.3,0,30.8-8.5,8.5-22.3,8.5-30.8,0-8.5-8.5-8.5-22.3,0-30.8,8.5-8.5,22.3-8.5,30.8,0Z"/>
    <g class="st9">
      <path class="st19" d="M88.6,41.4c0-14.8-12-26.8-26.8-26.8s-14.8,3.3-19.7,8.6c4.8-4.4,11.2-7.1,18.2-7.1,14.8,0,26.8,12,26.8,26.8s-2.7,13.4-7.1,18.2c5.3-4.9,8.6-11.9,8.6-19.7Z"/>
    </g>
  </g>
  <g>
    <path class="st18" d="M61.4,62.9c-11.7,0-21.2-9.5-21.2-21.2s9.5-21.2,21.2-21.2,21.2,9.5,21.2,21.2-9.5,21.2-21.2,21.2Z"/>
    <g class="st11">
      <path class="st5" d="M61.4,20.6c-6,0-11.5,2.5-15.3,6.6,3.8-3.6,8.9-5.8,14.6-5.8,11.7,0,21.2,9.5,21.2,21.2s-2.2,10.8-5.8,14.6c4-3.9,6.6-9.3,6.6-15.3,0-11.7-9.5-21.2-21.2-21.2Z"/>
    </g>
  </g>
  <path class="st2" d="M62.5,39.6c.2,0,.3.3.3.5v.4h0v9.8c0,0,0,.1,0,.2-.2.5-.4.9-.8,1.3-.4.4-.9.7-1.4.9-1.4.7-3.3,1-5.1,1s-3.7-.4-5.1-1.1c-.5-.2-.9-.5-1.3-.9-.4-.4-.6-.8-.8-1.3,0,0,0-.1,0-.2v-9.2s0,0,0,0c-.6-2.4.6-4.2,2.4-5.2,1.1-.6,2.4-1,3.7-1.1,1.3-.1,2.6,0,3.9.5,2,.7,3.6,2.1,4,4.4,0,0,0,0,0,.1h0ZM59.4,33h-.4c0,0-.1,0-.1-.1v-.7c0,0,0-.1.1-.1h.4v-.6c0-.2,0-.4.1-.6,0-.2.2-.4.4-.5h0c.3-.3.7-.5,1.2-.5h10.2c.9,0,1.7.7,1.7,1.7v.5h0c.2,0,.4,0,.6.1.2,0,.4.2.5.4.2.2.3.3.4.5,0,.2.1.4.1.6v3.1c0,.2,0,.4-.1.6,0,.2-.2.4-.4.5h0c-.2.2-.3.3-.5.4-.2,0-.4.1-.6.1-1.5,0-3,0-4.4,0-.3,0-.6,0-.9,0-.3,0-.5,0-.7.2,0,0,0,0-.1.1,0,0,0,.1-.1.2,0,0,0,.1,0,.2,0,0,0,.2,0,.2v3.3h.5c.3,0,.6.1.8.3.1.1.2.2.2.4,0,.1,0,.3,0,.4v5.9c0,.6-.5,1.1-1.1,1.1h-1.9c-.1,0-.3,0-.4,0-.1,0-.3-.1-.4-.2h0c-.1-.1-.2-.2-.2-.4,0-.1,0-.3,0-.4v-5.9c0-.3.1-.6.3-.8.1-.1.2-.2.4-.2.1,0,.3,0,.4,0h.5c0-1.1,0-2.2,0-3.3,0-.2,0-.3,0-.5,0-.1,0-.3.1-.4h0c0-.1.1-.2.2-.4,0-.1.2-.2.3-.3h0c.6-.5,1.5-.5,2.2-.4,1.4,0,3,0,4.4,0,0,0,.2,0,.3,0,.2,0,.3-.2.4-.4,0,0,0-.2,0-.3v-3.1c0-.2,0-.4-.2-.5,0,0-.1-.1-.2-.2,0,0-.2,0-.3,0h0v.4c0,.2,0,.4-.1.6,0,.2-.2.4-.4.5-.2.2-.3.3-.5.4-.2,0-.4.1-.6.1h-10.2c-.4,0-.9-.2-1.2-.5h0c-.2-.2-.3-.3-.4-.5,0-.2-.1-.4-.1-.6v-.3h0ZM71.3,30.8h-10.2c0,0-.2,0-.3,0,0,0-.2,0-.2.2,0,0-.1.1-.2.2,0,0,0,.2,0,.3v1.9c0,0,0,.2,0,.3,0,.2.2.3.4.4,0,0,.2,0,.3,0h10.1c0,0,.2,0,.3,0,.2,0,.3-.2.4-.4,0,0,0-.2,0-.3v-1.9c0,0,0-.2,0-.3,0-.2-.2-.3-.4-.4,0,0-.2,0-.3,0ZM55.6,37.6c1.9,0,3.6.3,4.9.7.2,0,.5.2.7.3-.6-1.3-1.7-2.1-3.1-2.6-1.1-.4-2.3-.5-3.6-.4-1.1,0-2.3.4-3.3.9-1,.6-1.8,1.5-2,2.6.4-.3.9-.6,1.5-.8,1.3-.5,3-.7,4.9-.7h0ZM61.8,42.1c-.3.2-.6.3-.9.5,0,.1-.1.3-.2.4-.4,1.1.3,3.1-1.1,3.5-.6.2-1.2-.2-1.4-.8,0-.1,0-.2,0-.4,0-1.9-2-1.7-1.9.4,0,.5,0,.9,0,1.4,0,.8.5,2.5-.9,2.5-.6,0-1.3-.5-1.3-1.5v-2.3c-.3-3.5-1.7-.9-2.7-.9-.7,0-1-1.1-1.2-2v-.4c-.4-.1-.6-.3-.9-.4v8.2c.1.3.3.6.5.8.3.3.6.5,1,.7,1.3.6,2.9.9,4.6,1s3.4-.3,4.7-.9c.4-.2.8-.4,1.1-.8.2-.2.4-.5.5-.8v-8.1ZM60.1,39.3c-1.2-.4-2.8-.7-4.6-.7s-3.4.3-4.6.7c-1,.4-1.6.8-1.6,1.2s.6.9,1.6,1.2c1.2.4,2.8.7,4.6.7s3.4-.3,4.6-.7c.7-.2,1.2-.5,1.4-.8,0,0,0,0,0,0,0-.3,0-.5,0-.8-.4-.4-.9-.6-1.4-.8Z"/>
</svg>