<?xml version="1.0" encoding="UTF-8"?>
<svg id="Layer_1" xmlns="http://www.w3.org/2000/svg" xmlns:xlink="http://www.w3.org/1999/xlink" version="1.1" viewBox="0 0 122.9 110.8">
  <!-- Generator: Adobe Illustrator 29.3.1, SVG Export Plug-In . SVG Version: 2.1.0 Build 151)  -->
  <defs>
    <style>
      .st0 {
        fill: none;
      }

      .st1 {
        mask: url(#mask);
      }

      .st2 {
        filter: url(#luminosity-noclip);
      }

      .st3 {
        fill: url(#linear-gradient2);
      }

      .st4 {
        fill: url(#linear-gradient1);
      }

      .st5 {
        fill: url(#linear-gradient4);
      }

      .st6 {
        filter: url(#luminosity-noclip2);
      }

      .st7 {
        filter: url(#luminosity-noclip4);
      }

      .st8 {
        fill: url(#radial-gradient);
      }

      .st9 {
        mask: url(#mask-2);
      }

      .st10 {
        mask: url(#mask-3);
      }

      .st11 {
        mask: url(#mask-4);
      }

      .st12 {
        mask: url(#mask-5);
      }

      .st13 {
        mask: url(#mask-1);
      }

      .st14 {
        clip-path: url(#clippath-1);
      }

      .st15 {
        fill: #f80;
      }

      .st16 {
        fill: url(#radial-gradient1);
      }

      .st16, .st17, .st18 {
        mix-blend-mode: multiply;
      }

      .st17 {
        fill: url(#linear-gradient);
      }

      .st19 {
        fill: url(#radial-gradient3);
      }

      .st20 {
        fill: url(#radial-gradient2);
      }

      .st18 {
        fill: url(#linear-gradient3);
      }

      .st21 {
        clip-path: url(#clippath);
      }
    </style>
    <radialGradient id="radial-gradient" cx="67.8" cy="33.5" fx="67.8" fy="33.5" r="43.4" gradientUnits="userSpaceOnUse">
      <stop offset="0" stop-color="#ff5e00"/>
      <stop offset=".3" stop-color="#ff6200"/>
      <stop offset=".6" stop-color="#ff6e00"/>
      <stop offset=".9" stop-color="#ff8300"/>
      <stop offset="1" stop-color="#f80"/>
    </radialGradient>
    <filter id="luminosity-noclip" x="33.6" y="45.5" width="55.6" height="51.7" color-interpolation-filters="sRGB" filterUnits="userSpaceOnUse">
      <feFlood flood-color="#fff" result="bg"/>
      <feBlend in="SourceGraphic" in2="bg"/>
    </filter>
    <filter id="luminosity-noclip1" x="33.6" y="-8247" width="55.6" height="32766" color-interpolation-filters="sRGB" filterUnits="userSpaceOnUse">
      <feFlood flood-color="#fff" result="bg"/>
      <feBlend in="SourceGraphic" in2="bg"/>
    </filter>
    <mask id="mask-1" x="33.6" y="-8247" width="55.6" height="32766" maskUnits="userSpaceOnUse"/>
    <linearGradient id="linear-gradient" x1="40" y1="85" x2="69.4" y2="34" gradientUnits="userSpaceOnUse">
      <stop offset="0" stop-color="#fff"/>
      <stop offset=".1" stop-color="#cbcbcb"/>
      <stop offset=".2" stop-color="#959595"/>
      <stop offset=".4" stop-color="#686868"/>
      <stop offset=".5" stop-color="#424242"/>
      <stop offset=".6" stop-color="#252525"/>
      <stop offset=".8" stop-color="#101010"/>
      <stop offset=".9" stop-color="#040404"/>
      <stop offset="1" stop-color="#000"/>
    </linearGradient>
    <mask id="mask" x="33.6" y="45.5" width="55.6" height="51.7" maskUnits="userSpaceOnUse">
      <g class="st2">
        <g class="st13">
          <path class="st17" d="M86,53.3c-8.8,14.4-24.5,41.2-24.6,41.4-.1-.1-15.8-27-24.6-41.4-1.5-2.4-2.6-5-3.2-7.8.5,3.7,1.7,7.1,3.4,10.1,8.2,14.4,19.9,34.8,23.4,40.9.2.3.4.5.7.6,0,0,.2,0,.3,0h0c0,0,.2,0,.3,0,.3,0,.6-.3.7-.6,3.5-6.1,15.2-26.5,23.4-40.9,1.8-3.1,2.9-6.5,3.4-10.1-.7,2.8-1.8,5.4-3.2,7.8Z"/>
        </g>
      </g>
    </mask>
    <linearGradient id="linear-gradient1" x1="40" y1="85" x2="69.4" y2="34" gradientUnits="userSpaceOnUse">
      <stop offset="0" stop-color="#f60"/>
      <stop offset=".3" stop-color="#f70"/>
      <stop offset=".7" stop-color="#ff8300"/>
      <stop offset="1" stop-color="#f80"/>
    </linearGradient>
    <linearGradient id="linear-gradient2" x1="19.9" y1="-79.7" x2="19.9" y2="-33.2" gradientTransform="translate(115.4 15.9) rotate(-135)" gradientUnits="userSpaceOnUse">
      <stop offset="0" stop-color="#ff9d17"/>
      <stop offset=".2" stop-color="#ff830d"/>
      <stop offset=".5" stop-color="#ff6e06"/>
      <stop offset=".8" stop-color="#ff6201"/>
      <stop offset="1" stop-color="#ff5e00"/>
    </linearGradient>
    <filter id="luminosity-noclip2" x="42.1" y="14.6" width="46.4" height="46.4" color-interpolation-filters="sRGB" filterUnits="userSpaceOnUse">
      <feFlood flood-color="#fff" result="bg"/>
      <feBlend in="SourceGraphic" in2="bg"/>
    </filter>
    <filter id="luminosity-noclip3" x="42.1" y="-8247" width="46.4" height="32766" color-interpolation-filters="sRGB" filterUnits="userSpaceOnUse">
      <feFlood flood-color="#fff" result="bg"/>
      <feBlend in="SourceGraphic" in2="bg"/>
    </filter>
    <mask id="mask-3" x="42.1" y="-8247" width="46.4" height="32766" maskUnits="userSpaceOnUse"/>
    <radialGradient id="radial-gradient1" cx="86.2" cy="17.7" fx="86.2" fy="17.7" r="42.9" gradientUnits="userSpaceOnUse">
      <stop offset="0" stop-color="#bfbfbf"/>
      <stop offset="1" stop-color="#000"/>
    </radialGradient>
    <mask id="mask-2" x="42.1" y="14.6" width="46.4" height="46.4" maskUnits="userSpaceOnUse">
      <g class="st6">
        <g class="st10">
          <path class="st16" d="M88.6,41.4c0-14.8-12-26.8-26.8-26.8s-14.8,3.3-19.7,8.6c4.8-4.4,11.2-7.1,18.2-7.1,14.8,0,26.8,12,26.8,26.8s-2.7,13.4-7.1,18.2c5.3-4.9,8.6-11.9,8.6-19.7Z"/>
        </g>
      </g>
    </mask>
    <radialGradient id="radial-gradient2" cx="86.2" cy="17.7" fx="86.2" fy="17.7" r="42.9" gradientUnits="userSpaceOnUse">
      <stop offset="0" stop-color="#ffff91"/>
      <stop offset="1" stop-color="#ffff91"/>
    </radialGradient>
    <radialGradient id="radial-gradient3" cx="65.1" cy="36.2" fx="65.1" fy="36.2" r="27.6" gradientUnits="userSpaceOnUse">
      <stop offset="0" stop-color="#fff"/>
      <stop offset=".3" stop-color="#fcfcfc"/>
      <stop offset=".6" stop-color="#f4f4f4"/>
      <stop offset=".7" stop-color="#e5e5e5"/>
      <stop offset=".9" stop-color="#d1d1d1"/>
      <stop offset=".9" stop-color="#d0d0d0"/>
    </radialGradient>
    <filter id="luminosity-noclip4" x="46.1" y="20.6" width="36.5" height="36.5" color-interpolation-filters="sRGB" filterUnits="userSpaceOnUse">
      <feFlood flood-color="#fff" result="bg"/>
      <feBlend in="SourceGraphic" in2="bg"/>
    </filter>
    <filter id="luminosity-noclip5" x="46.1" y="-8247" width="36.5" height="32766" color-interpolation-filters="sRGB" filterUnits="userSpaceOnUse">
      <feFlood flood-color="#fff" result="bg"/>
      <feBlend in="SourceGraphic" in2="bg"/>
    </filter>
    <mask id="mask-5" x="46.1" y="-8247" width="36.5" height="32766" maskUnits="userSpaceOnUse"/>
    <linearGradient id="linear-gradient3" x1="61.1" y1="42.1" x2="76.4" y2="26.8" gradientUnits="userSpaceOnUse">
      <stop offset="0" stop-color="#000"/>
      <stop offset="1" stop-color="#fff"/>
    </linearGradient>
    <mask id="mask-4" x="46.1" y="20.6" width="36.5" height="36.5" maskUnits="userSpaceOnUse">
      <g class="st7">
        <g class="st12">
          <path class="st18" d="M61.4,20.6c-6,0-11.5,2.5-15.3,6.6,3.8-3.6,8.9-5.8,14.6-5.8,11.7,0,21.2,9.5,21.2,21.2s-2.2,10.8-5.8,14.6c4-3.9,6.6-9.3,6.6-15.3,0-11.7-9.5-21.2-21.2-21.2Z"/>
        </g>
      </g>
    </mask>
    <linearGradient id="linear-gradient4" x1="61.1" y1="42.1" x2="76.4" y2="26.8" gradientUnits="userSpaceOnUse">
      <stop offset="0" stop-color="#fff"/>
      <stop offset="1" stop-color="#d0d0d0"/>
    </linearGradient>
    <clipPath id="clippath">
      <rect class="st0" x="37.3" y="23.1" width="46.3" height="44.8"/>
    </clipPath>
    <clipPath id="clippath-1">
      <rect class="st0" x="37.3" y="22.9" width="46.5" height="45"/>
    </clipPath>
  </defs>
  <g>
    <g>
      <path class="st8" d="M89.5,41.7c0-15.5-12.6-28.1-28.1-28.1s-28.1,12.6-28.1,28.1,1.3,9.8,3.7,13.9c8.2,14.4,19.9,34.8,23.4,40.9.2.4.6.6,1,.6s.8-.2,1-.6c3.5-6.1,15.2-26.5,23.4-40.9,2.3-4.1,3.7-8.8,3.7-13.9Z"/>
      <path class="st8" d="M89.5,41.7c0-15.5-12.6-28.1-28.1-28.1s-28.1,12.6-28.1,28.1,1.3,9.8,3.7,13.9c8.2,14.4,19.9,34.8,23.4,40.9.2.4.6.6,1,.6s.8-.2,1-.6c3.5-6.1,15.2-26.5,23.4-40.9,2.3-4.1,3.7-8.8,3.7-13.9Z"/>
      <g class="st1">
        <path class="st4" d="M86,53.3c-8.8,14.4-24.5,41.2-24.6,41.4-.1-.1-15.8-27-24.6-41.4-1.5-2.4-2.6-5-3.2-7.8.5,3.7,1.7,7.1,3.4,10.1,8.2,14.4,19.9,34.8,23.4,40.9.2.3.4.5.7.6,0,0,.2,0,.3,0h0c0,0,.2,0,.3,0,.3,0,.6-.3.7-.6,3.5-6.1,15.2-26.5,23.4-40.9,1.8-3.1,2.9-6.5,3.4-10.1-.7,2.8-1.8,5.4-3.2,7.8Z"/>
      </g>
      <path class="st3" d="M77.9,25.3c9.1,9.1,9.1,23.8,0,32.8-9.1,9.1-23.8,9.1-32.8,0-9.1-9.1-9.1-23.8,0-32.8,9.1-9.1,23.8-9.1,32.8,0Z"/>
      <path class="st15" d="M76.8,26.3c8.5,8.5,8.5,22.3,0,30.8-8.5,8.5-22.3,8.5-30.8,0-8.5-8.5-8.5-22.3,0-30.8,8.5-8.5,22.3-8.5,30.8,0Z"/>
      <g class="st9">
        <path class="st20" d="M88.6,41.4c0-14.8-12-26.8-26.8-26.8s-14.8,3.3-19.7,8.6c4.8-4.4,11.2-7.1,18.2-7.1,14.8,0,26.8,12,26.8,26.8s-2.7,13.4-7.1,18.2c5.3-4.9,8.6-11.9,8.6-19.7Z"/>
      </g>
    </g>
    <g>
      <path class="st19" d="M61.4,62.9c-11.7,0-21.2-9.5-21.2-21.2s9.5-21.2,21.2-21.2,21.2,9.5,21.2,21.2-9.5,21.2-21.2,21.2Z"/>
      <g class="st11">
        <path class="st5" d="M61.4,20.6c-6,0-11.5,2.5-15.3,6.6,3.8-3.6,8.9-5.8,14.6-5.8,11.7,0,21.2,9.5,21.2,21.2s-2.2,10.8-5.8,14.6c4-3.9,6.6-9.3,6.6-15.3,0-11.7-9.5-21.2-21.2-21.2Z"/>
      </g>
    </g>
  </g>
  <g class="st21">
    <g class="st14">
      <image width="450" height="435" transform="translate(37.3 22.9) scale(.1)" xlink:href="paint-roller-bucket-icon-1.png"/>
    </g>
  </g>
</svg>