<?xml version="1.0" encoding="UTF-8"?>
<svg id="Layer_1" xmlns="http://www.w3.org/2000/svg" xmlns:xlink="http://www.w3.org/1999/xlink" version="1.1" viewBox="0 0 122.9 110.8">
  <!-- Generator: Adobe Illustrator 29.3.1, SVG Export Plug-In . SVG Version: 2.1.0 Build 151)  -->
  <defs>
    <style>
      .st0 {
        mask: url(#mask);
      }

      .st1 {
        filter: url(#luminosity-noclip);
      }

      .st2 {
        fill: url(#linear-gradient2);
      }

      .st3 {
        fill: url(#linear-gradient1);
      }

      .st4 {
        fill: url(#linear-gradient4);
      }

      .st5 {
        filter: url(#luminosity-noclip2);
      }

      .st6 {
        filter: url(#luminosity-noclip4);
      }

      .st7 {
        fill: url(#radial-gradient);
      }

      .st8 {
        mask: url(#mask-2);
      }

      .st9 {
        mask: url(#mask-3);
      }

      .st10 {
        mask: url(#mask-4);
      }

      .st11 {
        mask: url(#mask-5);
      }

      .st12 {
        mask: url(#mask-1);
      }

      .st13 {
        fill: #f80;
      }

      .st14 {
        fill: url(#radial-gradient1);
      }

      .st14, .st15, .st16 {
        mix-blend-mode: multiply;
      }

      .st15 {
        fill: url(#linear-gradient);
      }

      .st17 {
        fill: url(#radial-gradient3);
      }

      .st18 {
        fill: url(#radial-gradient2);
      }

      .st16 {
        fill: url(#linear-gradient3);
      }
    </style>
    <radialGradient id="radial-gradient" cx="67.8" cy="33.5" fx="67.8" fy="33.5" r="43.4" gradientUnits="userSpaceOnUse">
      <stop offset="0" stop-color="#ff5e00"/>
      <stop offset=".3" stop-color="#ff6200"/>
      <stop offset=".6" stop-color="#ff6e00"/>
      <stop offset=".9" stop-color="#ff8300"/>
      <stop offset="1" stop-color="#f80"/>
    </radialGradient>
    <filter id="luminosity-noclip" x="33.6" y="45.5" width="55.6" height="51.7" color-interpolation-filters="sRGB" filterUnits="userSpaceOnUse">
      <feFlood flood-color="#fff" result="bg"/>
      <feBlend in="SourceGraphic" in2="bg"/>
    </filter>
    <filter id="luminosity-noclip1" x="33.6" y="-8247" width="55.6" height="32766" color-interpolation-filters="sRGB" filterUnits="userSpaceOnUse">
      <feFlood flood-color="#fff" result="bg"/>
      <feBlend in="SourceGraphic" in2="bg"/>
    </filter>
    <mask id="mask-1" x="33.6" y="-8247" width="55.6" height="32766" maskUnits="userSpaceOnUse"/>
    <linearGradient id="linear-gradient" x1="40" y1="85" x2="69.4" y2="34" gradientUnits="userSpaceOnUse">
      <stop offset="0" stop-color="#fff"/>
      <stop offset=".1" stop-color="#cbcbcb"/>
      <stop offset=".2" stop-color="#959595"/>
      <stop offset=".4" stop-color="#686868"/>
      <stop offset=".5" stop-color="#424242"/>
      <stop offset=".6" stop-color="#252525"/>
      <stop offset=".8" stop-color="#101010"/>
      <stop offset=".9" stop-color="#040404"/>
      <stop offset="1" stop-color="#000"/>
    </linearGradient>
    <mask id="mask" x="33.6" y="45.5" width="55.6" height="51.7" maskUnits="userSpaceOnUse">
      <g class="st1">
        <g class="st12">
          <path class="st15" d="M86,53.3c-8.8,14.4-24.5,41.2-24.6,41.4-.1-.1-15.8-27-24.6-41.4-1.5-2.4-2.6-5-3.2-7.8.5,3.7,1.7,7.1,3.4,10.1,8.2,14.4,19.9,34.8,23.4,40.9.2.3.4.5.7.6,0,0,.2,0,.3,0h0c0,0,.2,0,.3,0,.3,0,.6-.3.7-.6,3.5-6.1,15.2-26.5,23.4-40.9,1.8-3.1,2.9-6.5,3.4-10.1-.7,2.8-1.8,5.4-3.2,7.8Z"/>
        </g>
      </g>
    </mask>
    <linearGradient id="linear-gradient1" x1="40" y1="85" x2="69.4" y2="34" gradientUnits="userSpaceOnUse">
      <stop offset="0" stop-color="#f60"/>
      <stop offset=".3" stop-color="#f70"/>
      <stop offset=".7" stop-color="#ff8300"/>
      <stop offset="1" stop-color="#f80"/>
    </linearGradient>
    <linearGradient id="linear-gradient2" x1="19.9" y1="-79.7" x2="19.9" y2="-33.2" gradientTransform="translate(115.4 15.9) rotate(-135)" gradientUnits="userSpaceOnUse">
      <stop offset="0" stop-color="#ff9d17"/>
      <stop offset=".2" stop-color="#ff830d"/>
      <stop offset=".5" stop-color="#ff6e06"/>
      <stop offset=".8" stop-color="#ff6201"/>
      <stop offset="1" stop-color="#ff5e00"/>
    </linearGradient>
    <filter id="luminosity-noclip2" x="42.1" y="14.6" width="46.4" height="46.4" color-interpolation-filters="sRGB" filterUnits="userSpaceOnUse">
      <feFlood flood-color="#fff" result="bg"/>
      <feBlend in="SourceGraphic" in2="bg"/>
    </filter>
    <filter id="luminosity-noclip3" x="42.1" y="-8247" width="46.4" height="32766" color-interpolation-filters="sRGB" filterUnits="userSpaceOnUse">
      <feFlood flood-color="#fff" result="bg"/>
      <feBlend in="SourceGraphic" in2="bg"/>
    </filter>
    <mask id="mask-3" x="42.1" y="-8247" width="46.4" height="32766" maskUnits="userSpaceOnUse"/>
    <radialGradient id="radial-gradient1" cx="86.2" cy="17.7" fx="86.2" fy="17.7" r="42.9" gradientUnits="userSpaceOnUse">
      <stop offset="0" stop-color="#bfbfbf"/>
      <stop offset="1" stop-color="#000"/>
    </radialGradient>
    <mask id="mask-2" x="42.1" y="14.6" width="46.4" height="46.4" maskUnits="userSpaceOnUse">
      <g class="st5">
        <g class="st9">
          <path class="st14" d="M88.6,41.4c0-14.8-12-26.8-26.8-26.8s-14.8,3.3-19.7,8.6c4.8-4.4,11.2-7.1,18.2-7.1,14.8,0,26.8,12,26.8,26.8s-2.7,13.4-7.1,18.2c5.3-4.9,8.6-11.9,8.6-19.7Z"/>
        </g>
      </g>
    </mask>
    <radialGradient id="radial-gradient2" cx="86.2" cy="17.7" fx="86.2" fy="17.7" r="42.9" gradientUnits="userSpaceOnUse">
      <stop offset="0" stop-color="#ffff91"/>
      <stop offset="1" stop-color="#ffff91"/>
    </radialGradient>
    <radialGradient id="radial-gradient3" cx="65.1" cy="36.2" fx="65.1" fy="36.2" r="27.6" gradientUnits="userSpaceOnUse">
      <stop offset="0" stop-color="#fff"/>
      <stop offset=".3" stop-color="#fcfcfc"/>
      <stop offset=".6" stop-color="#f4f4f4"/>
      <stop offset=".7" stop-color="#e5e5e5"/>
      <stop offset=".9" stop-color="#d1d1d1"/>
      <stop offset=".9" stop-color="#d0d0d0"/>
    </radialGradient>
    <filter id="luminosity-noclip4" x="46.1" y="20.6" width="36.5" height="36.5" color-interpolation-filters="sRGB" filterUnits="userSpaceOnUse">
      <feFlood flood-color="#fff" result="bg"/>
      <feBlend in="SourceGraphic" in2="bg"/>
    </filter>
    <filter id="luminosity-noclip5" x="46.1" y="-8247" width="36.5" height="32766" color-interpolation-filters="sRGB" filterUnits="userSpaceOnUse">
      <feFlood flood-color="#fff" result="bg"/>
      <feBlend in="SourceGraphic" in2="bg"/>
    </filter>
    <mask id="mask-5" x="46.1" y="-8247" width="36.5" height="32766" maskUnits="userSpaceOnUse"/>
    <linearGradient id="linear-gradient3" x1="61.1" y1="42.1" x2="76.4" y2="26.8" gradientUnits="userSpaceOnUse">
      <stop offset="0" stop-color="#000"/>
      <stop offset="1" stop-color="#fff"/>
    </linearGradient>
    <mask id="mask-4" x="46.1" y="20.6" width="36.5" height="36.5" maskUnits="userSpaceOnUse">
      <g class="st6">
        <g class="st11">
          <path class="st16" d="M61.4,20.6c-6,0-11.5,2.5-15.3,6.6,3.8-3.6,8.9-5.8,14.6-5.8,11.7,0,21.2,9.5,21.2,21.2s-2.2,10.8-5.8,14.6c4-3.9,6.6-9.3,6.6-15.3,0-11.7-9.5-21.2-21.2-21.2Z"/>
        </g>
      </g>
    </mask>
    <linearGradient id="linear-gradient4" x1="61.1" y1="42.1" x2="76.4" y2="26.8" gradientUnits="userSpaceOnUse">
      <stop offset="0" stop-color="#fff"/>
      <stop offset="1" stop-color="#d0d0d0"/>
    </linearGradient>
  </defs>
  <g>
    <g>
      <path class="st7" d="M89.5,41.7c0-15.5-12.6-28.1-28.1-28.1s-28.1,12.6-28.1,28.1,1.3,9.8,3.7,13.9c8.2,14.4,19.9,34.8,23.4,40.9.2.4.6.6,1,.6s.8-.2,1-.6c3.5-6.1,15.2-26.5,23.4-40.9,2.3-4.1,3.7-8.8,3.7-13.9Z"/>
      <path class="st7" d="M89.5,41.7c0-15.5-12.6-28.1-28.1-28.1s-28.1,12.6-28.1,28.1,1.3,9.8,3.7,13.9c8.2,14.4,19.9,34.8,23.4,40.9.2.4.6.6,1,.6s.8-.2,1-.6c3.5-6.1,15.2-26.5,23.4-40.9,2.3-4.1,3.7-8.8,3.7-13.9Z"/>
      <g class="st0">
        <path class="st3" d="M86,53.3c-8.8,14.4-24.5,41.2-24.6,41.4-.1-.1-15.8-27-24.6-41.4-1.5-2.4-2.6-5-3.2-7.8.5,3.7,1.7,7.1,3.4,10.1,8.2,14.4,19.9,34.8,23.4,40.9.2.3.4.5.7.6,0,0,.2,0,.3,0h0c0,0,.2,0,.3,0,.3,0,.6-.3.7-.6,3.5-6.1,15.2-26.5,23.4-40.9,1.8-3.1,2.9-6.5,3.4-10.1-.7,2.8-1.8,5.4-3.2,7.8Z"/>
      </g>
      <path class="st2" d="M77.9,25.3c9.1,9.1,9.1,23.8,0,32.8-9.1,9.1-23.8,9.1-32.8,0-9.1-9.1-9.1-23.8,0-32.8,9.1-9.1,23.8-9.1,32.8,0Z"/>
      <path class="st13" d="M76.8,26.3c8.5,8.5,8.5,22.3,0,30.8-8.5,8.5-22.3,8.5-30.8,0-8.5-8.5-8.5-22.3,0-30.8,8.5-8.5,22.3-8.5,30.8,0Z"/>
      <g class="st8">
        <path class="st18" d="M88.6,41.4c0-14.8-12-26.8-26.8-26.8s-14.8,3.3-19.7,8.6c4.8-4.4,11.2-7.1,18.2-7.1,14.8,0,26.8,12,26.8,26.8s-2.7,13.4-7.1,18.2c5.3-4.9,8.6-11.9,8.6-19.7Z"/>
      </g>
    </g>
    <g>
      <path class="st17" d="M61.4,62.9c-11.7,0-21.2-9.5-21.2-21.2s9.5-21.2,21.2-21.2,21.2,9.5,21.2,21.2-9.5,21.2-21.2,21.2Z"/>
      <g class="st10">
        <path class="st4" d="M61.4,20.6c-6,0-11.5,2.5-15.3,6.6,3.8-3.6,8.9-5.8,14.6-5.8,11.7,0,21.2,9.5,21.2,21.2s-2.2,10.8-5.8,14.6c4-3.9,6.6-9.3,6.6-15.3,0-11.7-9.5-21.2-21.2-21.2Z"/>
      </g>
    </g>
  </g>
  <g>
    <path d="M62,24.3c.4.3.8,0,.8,0-.3.6,1,.5,1.4.5,1,.2,1.5.4,2.4.7s.8.1,1.3.2v.2c.6.2,1.3.6,2,1s.4,0,.5.1.1.3.2.3.3,0,.3,0c0,0,0,.2,0,.3s.3.2.4.2,0,.2.1.2c.3.1.8,0,.6.5h.4s.1-.3.1-.3c-.1.7.4,0,.6.1s-.4.2-.2.4h.9s-.3.3-.3.3l.3.5s-.5-.2-.5.1h.9c0,.1-.3.3-.3.3l.4.3-.3.3.2.5h.3c0,.2.3.2.1.4h.3c-.2.3,0,.7.5.6l-.2.2c.2.4.4.3.4.8l.6.3h-.3c0,.4.6.6.6.7s0,.7.1,1.1c.4,1.1.9,2.2,1.1,3.2s0,1.6.3,1.9c-.3.5,0,1.3,0,1.8s-.2.8-.3,1.2h.4c0,.4-.3.6-.5.4l.4.4h-.4c0,0,.4.5.4.5h-.5c0,0,.2.2.2.2h-.2c0,.3,0,.6,0,.8-.2.4,0,.3-.2.7s-.2,0-.3.2c-.2.5-.3,1.2-.6,1.8s-1,1.4-1.2,2,0,.4,0,.4c0,0-.2,0-.4.1s0,.5-.2.6-.7.6-.9.8-.4.9-.6,1c-.7.4-1.1.9-1.8,1.4s-.4.1-.6.3,0,.3-.2.5v-.2c-.2.2-.4.1-.4.1-.1,0-.6.6-.7.6s-.3,0-.6.1-1,.7-1.1.7c-.3.1-.1-.2-.7.3s-1.5.3-1.7.4-.8.4-.9.4c-.2,0-.7,0-.9,0l-.2.5h-.2c0-.4-.2-.4-.3-.1-.3-.4-.5,0-.8.1v-.3s-1.6.2-1.6.2c-.4,0-.5-.3-.7.2,0-.4-1.4-.6-1.6-.4s-.1.2-.2.4c-.1.9.2,5-.4,5.4s-.7-.6-.8-1l-.2-4.9c-.2,0-.3-.2-.3-.2-.2,0-.3.1-.5,0s-.2-.3-.4-.4c-.4-.2-.8-.2-1.1-.3s0-.2-.2-.2c0,.4.1,3.4-.7,2.7s-.2-1.9-.3-2.4-.7-1.1-1.2-1l.2-.3h-.8c.3-.5-.4-.7-.7-.8s-.4-.5-.9-.4c.2-.3-.1-.7-.4-.8s-.5,0-.4-.4c-.4,0-.5-.4-.7-.7-.2,0-.1.4-.4,0s0-.6,0-.6c0,0-.2,0-.3,0s-.1-.2-.2-.2-.2,0-.3,0c0-.1,0-.4-.1-.5s-.5-.3-.6-.6l.2-.2c0,0-.2,0-.2-.1-.2-.2-.1-1-.6-.9v-.5c-.1,0-.4,0-.4,0,0-.2.2-.7,0-.9s-.2-.1-.3-.2c0,0,.3-.5-.4-.4,0-.2.2,0,.2-.2.3-.4-.2-.6-.3-.7s-.2-1.4-.3-1.9-.5-2.1-.5-2.8.4-1.5,0-1.9h.2s0-1.1,0-1.1l.2-.2h-.2c0-.1.2-.2.2-.3,0-.2,0-.6,0-.8,0-.5.4-1.2.5-1.8s0-.2,0-.4h.3s-.3-.2-.3-.2h.3c-.2-.6.2-.5.3-.7.2-.4.3-1,.6-1.4s.8-.7.7-.9l-.2-.2c.6,0,.3,0,.5-.3s.5-.5.5-.9h.2c0,.1,0-.3,0-.3.5.1.3-.1.5-.3.4-.5,1-.9,1.5-1.3v-.3c0,0,.5-.1.5-.1l-.2-.4h.3s0-.2,0-.2l.2.2,1-.8h.2c0,0,0-.4,0-.4h.6c0,.1,0-.2,0-.2l.2.2c0,0,0-.2,0-.2.8-.5,3.4-1.3,4.3-1.5s1.4.1,1.8-.3c0,.3.4.3.7.2s.6-.4.7-.4c.2,0,.6.2.9,0v-.2c-.1,0,.2-.1.2-.1,0,0,0,.1,0,.2ZM61.6,27.7c-.7-.5-.9,0-1.6-.3-.3.5-.2.2-.5.1s-.5.3-.6.2-.2-.2-.3-.2c-.3,0-.6.6-.8.5s0-.2-.1-.2c-.2,0-.8.2-.8.5h-.2s0-.2,0-.2c-.2.4-.3.2-.5.3-.4.2-.8.4-1.1.6s-1,.4-1.1.5v.3c0,0-.5,0-.5,0v.3s0,0-.2,0c-.2.1-1.1.8-1.2.9s-.2.6-.3.7-.6.4-.8.6-.6.9-.6,1,.3,0,.2.2h-.4c0,0,0,.3,0,.3h-.3c.1.3-.8,1.4-.6,1.5h.3c0,0-.4.2-.4.2.3.6,0,.3-.3.6s0,.7-.1.9-.2.1-.3.2c0,0-.4,2-.4,2.2s0,.4.2.7c-.5,0-.2.5-.2.8,0,.9-.1,1.4.1,2.3.4,1.7,1.1,3.4,1.9,4.8s0,.2,0,.3h.2c0,.1.2.4.3.6.4.6,1.5,1.9,2.2,2.4s1.3.8,1.8,1.3l.2-.2c.3,0,.2.3.3.4.2.2,1.6.8,1.9.6v.3c.3,0,.6.2.8.2.3,0,.4-.2.8.2l.2-.2c0,.2.6.3.8.4.4,0,.8.1,1.1-.2v.3c.5-.1,1.5.3,1.8-.3h.1c0,.6.8,0,1,0s.4,0,.5,0c.9-.2,1.9-.6,2.8-.8v-.4c.1,0,.3.2.3.2.1-.3.5-.2.6-.3s.4-.4.4-.6l.2.2c.2-.3.7-.4.9-.5.3-.2.5-.8,1-.8v-.3c-.1,0,.2.2.2.2-.1-.4.5-.5.5-.5,0,0,0-.3,0-.4s.2,0,.3,0c.2-.2.2-.4.6-.4l-.2-.3c.5,0,.4-.1.5-.3.8-1.2,1.8-2.3,2-3.7s.7-1.7.8-2.3,0-1.2,0-1.5.3-.2,0-.6c.4.1.2-1.3.2-1.3s-.1,0-.2,0l.2-.2c-.3-1.8-.6-3.3-1.5-4.9s-.3-.3-.4-.5,0-.4-.2-.5-.4-.2-.4-.2c0,0,0-.3,0-.4,0-.2-.4-.4-.4-.7h-.2c0-.2,0-.4-.4-.3.3-.3-.3-.4-.4-.4s.1-.2-.1-.5-.5-.3-.7-.4-.5-.6-.7-.8c-1.9-1.4-4.1-2.2-6.2-2.5s-.2,0-.3-.2v.2c0,0-.3-.2-.3-.2v.2c0,0-.2-.2-.2-.2-.2,0-.6.3-.8.3s0-.1,0-.1Z"/>
    <path d="M70.7,45.3h-.4s0-1-.3-.7c0,.1,0,.3-.2.4-2.3,2.8-4.8,4.4-8.6,4.5s-4.5-.5-6.1-1.8-.9-.9-1.4-1.3-.7-.3-.9-.6l-.2.7c-.7.7-.6-1.6-.6-1.8s-.4-.5-.6-.9-.1-1-.5-1.2h.2c-.2-.4.4-.7.6-.9l-.2-.4c.4-.3.8.4.9-.1l.2.3c.4-.2.3,0,.4,0,.4.2.2.2.3.4s.4.2.4.2,0,.2,0,.2c.4,1.2.1,2.5,1.5,3.2,3.4,1.8,8,2.5,11.1-.3s1.9-1.9,2.4-2.8,0-.9.1-1.3c.3-.9,1.3-1.1,2-1.3v.2c.5-.2.5.1.7.4s.2,0,.2.2c.4.9-.2,1.8-.5,2.6-.2,1,.3,2.8,0,3.7s-.6.4-.6.2v-1.9Z"/>
    <path d="M65.6,39.6s-.1,0-.2,0c0,.3.3,1.5-.4,1.6s-.5-1.2-.4-1.6c-.4.1-.7,0-1-.2,0-.4-.3-.6-.4-1-.2-.7,0-1.9,0-2.5s-.2,0-.2-.1c0-.3.2,0,.2,0,.2-.3-.2-.1-.2-.3h.2c0-.8,0-1.4,0-2.1s0-1.2.1-1.7.2-1.1.4-1.3c.4-.4,1.4-.7,1.8-.2s.3.6.3.8c.1,1.1-.1,3-.1,4.2s0,2.6-.3,4.3Z"/>
    <path d="M57,30.4c0,.6.5.4.5.4s.2.5.2.6c.2.8.1,2.2.1,3.1s0,2.6-.2,3.4-.2.5-.2.6-.7.4-.7.4-.8-.3-.9-.4c-.2-.2-.4-.9-.4-1.2-.2-2-.1-4,.1-6,.3-.6.9-.8,1.5-.9Z"/>
  </g>
</svg>